<svg width="70" height="70" viewBox="0 0 70 70" fill="none" xmlns="http://www.w3.org/2000/svg">
<rect width="70" height="70" rx="35" fill="url(#paint0_linear_432_46690)"/>
<g clip-path="url(#clip0_432_46690)">
<path d="M35 39.5C36.5913 39.5 38.1174 38.8679 39.2426 37.7426C40.3679 36.6174 41 35.0913 41 33.5V26C41 24.4087 40.3679 22.8826 39.2426 21.7574C38.1174 20.6321 36.5913 20 35 20C33.4087 20 31.8826 20.6321 30.7574 21.7574C29.6321 22.8826 29 24.4087 29 26V33.5C29 35.0913 29.6321 36.6174 30.7574 37.7426C31.8826 38.8679 33.4087 39.5 35 39.5Z" fill="white"/>
<path d="M45.5 33.5C45.5 33.1022 45.342 32.7206 45.0607 32.4393C44.7794 32.158 44.3978 32 44 32C43.6022 32 43.2206 32.158 42.9393 32.4393C42.658 32.7206 42.5 33.1022 42.5 33.5C42.5 35.4891 41.7098 37.3968 40.3033 38.8033C38.8968 40.2098 36.9891 41 35 41C33.0109 41 31.1032 40.2098 29.6967 38.8033C28.2902 37.3968 27.5 35.4891 27.5 33.5C27.5 33.1022 27.342 32.7206 27.0607 32.4393C26.7794 32.158 26.3978 32 26 32C25.6022 32 25.2206 32.158 24.9393 32.4393C24.658 32.7206 24.5 33.1022 24.5 33.5C24.503 36.0228 25.4141 38.4601 27.0668 40.3662C28.7194 42.2723 31.0031 43.5196 33.5 43.88V47H30.335C29.9809 47 29.6414 47.1407 29.391 47.391C29.1407 47.6414 29 47.9809 29 48.335V48.665C29 49.0191 29.1407 49.3586 29.391 49.609C29.6414 49.8593 29.9809 50 30.335 50H39.665C40.0191 50 40.3586 49.8593 40.609 49.609C40.8593 49.3586 41 49.0191 41 48.665V48.335C41 47.9809 40.8593 47.6414 40.609 47.391C40.3586 47.1407 40.0191 47 39.665 47H36.5V43.88C38.9969 43.5196 41.2806 42.2723 42.9332 40.3662C44.5859 38.4601 45.497 36.0228 45.5 33.5Z" fill="white"/>
</g>
<defs>
<linearGradient id="paint0_linear_432_46690" x1="70.2893" y1="65.463" x2="-19.438" y2="48.4167" gradientUnits="userSpaceOnUse">
<stop stop-color="#409500"/>
<stop offset="1" stop-color="#84F630"/> 
</linearGradient>
<clipPath id="clip0_432_46690">
<rect width="36" height="36" fill="white" transform="translate(17 17)"/>
</clipPath>
</defs>
</svg>
