<svg width="121" height="54" viewBox="0 0 121 54" fill="none" xmlns="http://www.w3.org/2000/svg">
<rect width="121" height="54" rx="10" fill="url(#paint0_linear_82_70032)"/>
<path d="M32.12 21C32.3867 21 32.6 21.0933 32.76 21.28C32.9333 21.4533 33.02 21.6733 33.02 21.94V33.98C33.02 34.2733 32.92 34.52 32.72 34.72C32.5333 34.9067 32.2933 35 32 35C31.8667 35 31.72 34.9733 31.56 34.92C31.4133 34.8667 31.3 34.7933 31.22 34.7L23 24.04L23.46 23.78V34.08C23.46 34.3333 23.3733 34.5533 23.2 34.74C23.0267 34.9133 22.8067 35 22.54 35C22.26 35 22.0333 34.9133 21.86 34.74C21.7 34.5533 21.62 34.3333 21.62 34.08V22.02C21.62 21.7133 21.72 21.4667 21.92 21.28C22.12 21.0933 22.36 21 22.64 21C22.7867 21 22.94 21.0333 23.1 21.1C23.2733 21.1533 23.4 21.24 23.48 21.36L31.5 31.8L31.2 32.08V21.94C31.2 21.6733 31.2867 21.4533 31.46 21.28C31.6333 21.0933 31.8533 21 32.12 21ZM40.968 35.2C39.8613 35.2 38.9013 34.9733 38.088 34.52C37.2746 34.0533 36.6413 33.42 36.188 32.62C35.748 31.8067 35.528 30.88 35.528 29.84C35.528 28.6667 35.7613 27.6667 36.228 26.84C36.708 26 37.328 25.36 38.088 24.92C38.848 24.4667 39.6546 24.24 40.508 24.24C41.1613 24.24 41.7813 24.3733 42.368 24.64C42.9546 24.8933 43.4746 25.2533 43.928 25.72C44.3946 26.1733 44.7613 26.7133 45.028 27.34C45.2946 27.9533 45.4346 28.6267 45.448 29.36C45.4346 29.6267 45.328 29.8467 45.128 30.02C44.928 30.1933 44.6946 30.28 44.428 30.28H36.648L36.168 28.58H43.688L43.308 28.94V28.44C43.2813 27.9733 43.128 27.5667 42.848 27.22C42.568 26.86 42.2213 26.5867 41.808 26.4C41.3946 26.2 40.9613 26.1 40.508 26.1C40.108 26.1 39.7213 26.1667 39.348 26.3C38.988 26.42 38.6613 26.62 38.368 26.9C38.088 27.18 37.8613 27.5533 37.688 28.02C37.528 28.4733 37.448 29.04 37.448 29.72C37.448 30.4533 37.6013 31.0933 37.908 31.64C38.2146 32.1867 38.628 32.6133 39.148 32.92C39.668 33.2133 40.2413 33.36 40.868 33.36C41.3613 33.36 41.768 33.3133 42.088 33.22C42.408 33.1133 42.6746 32.9867 42.888 32.84C43.1013 32.6933 43.288 32.5533 43.448 32.42C43.648 32.3 43.848 32.24 44.048 32.24C44.288 32.24 44.488 32.3267 44.648 32.5C44.808 32.66 44.888 32.8533 44.888 33.08C44.888 33.3733 44.7413 33.64 44.448 33.88C44.088 34.2267 43.588 34.5333 42.948 34.8C42.3213 35.0667 41.6613 35.2 40.968 35.2ZM47.7095 24.42C48.0429 24.42 48.3162 24.56 48.5295 24.84L55.3495 33.44C55.4962 33.6133 55.5695 33.8133 55.5695 34.04C55.5695 34.3067 55.4629 34.54 55.2495 34.74C55.0362 34.94 54.8029 35.04 54.5495 35.04C54.2295 35.04 53.9562 34.9 53.7295 34.62L46.9095 26.02C46.7629 25.8467 46.6895 25.6467 46.6895 25.42C46.6895 25.14 46.7895 24.9067 46.9895 24.72C47.2029 24.52 47.4429 24.42 47.7095 24.42ZM47.7295 35.04C47.5029 35.04 47.2829 34.9533 47.0695 34.78C46.8562 34.6067 46.7495 34.3933 46.7495 34.14C46.7495 33.9133 46.8295 33.7067 46.9895 33.52L50.1695 29.58L51.1895 31.22L48.5295 34.62C48.3162 34.9 48.0495 35.04 47.7295 35.04ZM54.5295 24.42C54.8095 24.42 55.0362 24.5133 55.2095 24.7C55.3962 24.8733 55.4895 25.08 55.4895 25.32C55.4895 25.4267 55.4695 25.54 55.4295 25.66C55.4029 25.7667 55.3429 25.8667 55.2495 25.96L52.1095 29.9L51.0695 28.42L53.7295 24.88C53.9562 24.5733 54.2229 24.42 54.5295 24.42ZM58.2522 24.6H62.9522C63.2189 24.6 63.4389 24.6933 63.6122 24.88C63.7989 25.0533 63.8922 25.2733 63.8922 25.54C63.8922 25.7933 63.7989 26.0067 63.6122 26.18C63.4389 26.3533 63.2189 26.44 62.9522 26.44H58.2522C57.9855 26.44 57.7589 26.3533 57.5722 26.18C57.3989 25.9933 57.3122 25.7733 57.3122 25.52C57.3122 25.2533 57.3989 25.0333 57.5722 24.86C57.7589 24.6867 57.9855 24.6 58.2522 24.6ZM60.3522 22C60.6455 22 60.8855 22.1 61.0722 22.3C61.2589 22.4867 61.3522 22.7267 61.3522 23.02V32.3C61.3522 32.54 61.3922 32.7333 61.4722 32.88C61.5522 33.0267 61.6589 33.1267 61.7922 33.18C61.9389 33.2333 62.0855 33.26 62.2322 33.26C62.3789 33.26 62.5055 33.2333 62.6122 33.18C62.7322 33.1267 62.8722 33.1 63.0322 33.1C63.1922 33.1 63.3389 33.1733 63.4722 33.32C63.6055 33.4667 63.6722 33.6667 63.6722 33.92C63.6722 34.24 63.4989 34.5 63.1522 34.7C62.8055 34.9 62.4322 35 62.0322 35C61.8055 35 61.5389 34.98 61.2322 34.94C60.9255 34.9 60.6255 34.8 60.3322 34.64C60.0522 34.48 59.8189 34.2267 59.6322 33.88C59.4455 33.52 59.3522 33.02 59.3522 32.38V23.02C59.3522 22.7267 59.4455 22.4867 59.6322 22.3C59.8322 22.1 60.0722 22 60.3522 22Z" fill="white"/>
<g clip-path="url(#clip0_82_70032)">
<path d="M78 25.9993H89.86L86.23 21.6393C86.0603 21.4351 85.9786 21.1718 86.003 20.9074C86.0274 20.6429 86.1558 20.399 86.36 20.2293C86.5642 20.0596 86.8275 19.9779 87.0919 20.0023C87.3563 20.0267 87.6003 20.1551 87.77 20.3593L92.77 26.3593C92.8036 26.407 92.8337 26.4572 92.86 26.5093C92.86 26.5593 92.86 26.5893 92.93 26.6393C92.9753 26.754 92.9991 26.876 93 26.9993C92.9991 27.1226 92.9753 27.2446 92.93 27.3593C92.93 27.4093 92.93 27.4393 92.86 27.4893C92.8337 27.5414 92.8036 27.5916 92.77 27.6393L87.77 33.6393C87.676 33.7522 87.5582 33.843 87.4252 33.9052C87.2921 33.9674 87.1469 33.9995 87 33.9993C86.7663 33.9998 86.5399 33.9184 86.36 33.7693C86.2587 33.6854 86.175 33.5822 86.1137 33.4659C86.0523 33.3496 86.0145 33.2222 86.0025 33.0913C85.9904 32.9603 86.0043 32.8282 86.0433 32.7026C86.0824 32.577 86.1458 32.4603 86.23 32.3593L89.86 27.9993H78C77.7348 27.9993 77.4804 27.8939 77.2929 27.7064C77.1054 27.5189 77 27.2645 77 26.9993C77 26.7341 77.1054 26.4797 77.2929 26.2922C77.4804 26.1047 77.7348 25.9993 78 25.9993Z" fill="white"/>
</g>
<defs>
<linearGradient id="paint0_linear_82_70032" x1="121" y1="54" x2="33.4084" y2="20.4058" gradientUnits="userSpaceOnUse">
<stop stop-color="#E15404"/>
<stop offset="1" stop-color="#FF9050"/>
</linearGradient>
<clipPath id="clip0_82_70032">
<rect width="24" height="24" fill="white" transform="matrix(-1 0 0 1 97 15)"/>
</clipPath>
</defs>
</svg>
