<svg width="70" height="70" viewBox="0 0 70 70" fill="none" xmlns="http://www.w3.org/2000/svg">
<rect width="70" height="70" rx="35" fill="url(#paint0_linear_432_46669)"/>
<g clip-path="url(#clip0_432_46669)">
<path d="M43.3732 30.1609C43.1505 29.8851 42.8272 29.7091 42.4747 29.6716C42.1221 29.6341 41.7691 29.7381 41.4932 29.9609C41.2174 30.1837 41.0414 30.5069 41.0039 30.8595C40.9664 31.2121 41.0705 31.5651 41.2932 31.8409C41.9669 32.7568 42.3302 33.864 42.3302 35.0009C42.3302 36.1379 41.9669 37.245 41.2932 38.1609C41.1343 38.3569 41.0342 38.5939 41.0046 38.8445C40.975 39.095 41.0171 39.3489 41.126 39.5765C41.2349 39.8041 41.4061 39.9961 41.6198 40.1302C41.8336 40.2644 42.0809 40.3351 42.3332 40.3343C42.5324 40.3349 42.7292 40.291 42.9092 40.2056C43.0892 40.1202 43.2478 39.9956 43.3732 39.8409C44.4308 38.449 45.0034 36.749 45.0034 35.0009C45.0034 33.2528 44.4308 31.5528 43.3732 30.1609Z" fill="white"/>
<path d="M45.1866 25.9724C45.0517 25.8603 44.8962 25.7759 44.7287 25.724C44.5613 25.6721 44.3852 25.6536 44.2107 25.6697C44.0361 25.6858 43.8664 25.7361 43.7113 25.8178C43.5562 25.8995 43.4186 26.0109 43.3066 26.1457C43.1945 26.2806 43.1101 26.4361 43.0582 26.6036C43.0062 26.771 42.9878 26.9471 43.0039 27.1216C43.02 27.2962 43.0703 27.4659 43.152 27.621C43.2336 27.7761 43.3451 27.9137 43.4799 28.0257C44.5493 28.8522 45.4204 29.9073 46.0294 31.1139C46.6384 32.3204 46.97 33.6479 46.9999 34.9991C46.97 36.3503 46.6384 37.6777 46.0294 38.8842C45.4204 40.0908 44.5493 41.1459 43.4799 41.9724C43.3449 42.0843 43.2333 42.2218 43.1515 42.3769C43.0697 42.5321 43.0193 42.7018 43.0032 42.8764C42.9871 43.0511 43.0056 43.2272 43.0577 43.3946C43.1097 43.5621 43.1943 43.7177 43.3066 43.8524C43.4319 44.0029 43.5889 44.1239 43.7664 44.2069C43.9438 44.2899 44.1374 44.3327 44.3332 44.3324C44.6448 44.333 44.9467 44.2245 45.1866 44.0257C46.5605 42.9516 47.6761 41.5832 48.4514 40.021C49.2267 38.4589 49.642 36.7428 49.6666 34.9991C49.642 33.2553 49.2267 31.5392 48.4514 29.9771C47.6761 28.4149 46.5605 27.0465 45.1866 25.9724Z" fill="white"/>
<path d="M38.2933 23.1591C38.0906 23.0421 37.8606 22.9805 37.6266 22.9805C37.3925 22.9805 37.1626 23.0421 36.9599 23.1591L28.3333 29.0924H21.6666C21.313 29.0924 20.9738 29.2329 20.7238 29.483C20.4737 29.733 20.3333 30.0721 20.3333 30.4258V39.5724C20.3333 39.9261 20.4737 40.2652 20.7238 40.5152C20.9738 40.7653 21.313 40.9058 21.6666 40.9058H28.3333L36.8799 46.7724C37.114 46.9239 37.3877 47.0028 37.6666 46.9991C38.0202 46.9991 38.3593 46.8586 38.6094 46.6086C38.8594 46.3585 38.9999 46.0194 38.9999 45.6658V24.3324C38.9993 24.0912 38.9332 23.8547 38.8088 23.6481C38.6843 23.4415 38.5062 23.2725 38.2933 23.1591Z" fill="white"/>
</g>
<defs>
<linearGradient id="paint0_linear_432_46669" x1="70" y1="70" x2="-9.38217" y2="56.914" gradientUnits="userSpaceOnUse">
<stop stop-color="#710EDC"/>
<stop offset="1" stop-color="#A856FF"/>
</linearGradient>
<clipPath id="clip0_432_46669">
<rect width="32" height="32" fill="white" transform="translate(19 19)"/>
</clipPath>
</defs>
</svg>
