<svg width="70" height="70" viewBox="0 0 70 70" fill="none" xmlns="http://www.w3.org/2000/svg">
<rect width="70" height="70" rx="35" fill="url(#paint0_linear_432_46709)"/>
<g clip-path="url(#clip0_432_46709)">
<path d="M46.1417 37.2634C45.7427 37.1391 45.3108 37.1775 44.9401 37.3703C44.5693 37.563 44.2898 37.8946 44.1625 38.2926C43.4145 40.5797 41.9562 42.5684 39.9999 43.9695C38.0435 45.3705 35.6911 46.1108 33.285 46.0826C30.3089 46.1164 27.4408 44.9686 25.3097 42.8909C23.1786 40.8133 21.9584 37.9753 21.9167 34.9992C21.9584 32.0232 23.1786 29.1852 25.3097 27.1075C27.4408 25.0298 30.3089 23.8821 33.285 23.9159C35.9728 23.9094 38.5779 24.845 40.6475 26.5601L37.2117 25.9901C37.0057 25.9562 36.7952 25.9633 36.592 26.0111C36.3889 26.0589 36.1972 26.1464 36.028 26.2685C35.8588 26.3907 35.7154 26.545 35.606 26.7228C35.4967 26.9005 35.4235 27.0981 35.3908 27.3042C35.357 27.5102 35.3641 27.7207 35.4119 27.9239C35.4597 28.127 35.5472 28.3187 35.6693 28.4879C35.7914 28.6571 35.9458 28.8005 36.1235 28.9099C36.3013 29.0192 36.4989 29.0924 36.705 29.1251L43.4183 30.2334H43.6875C43.8711 30.2332 44.0533 30.201 44.2258 30.1384C44.2838 30.1164 44.3374 30.0842 44.3842 30.0434C44.4977 30.0012 44.6044 29.9425 44.7008 29.8692L44.8433 29.6951C44.8433 29.6159 44.9858 29.5526 45.0492 29.4576C45.1125 29.3626 45.0492 29.2992 45.1283 29.2359C45.1721 29.1437 45.2091 29.0484 45.2392 28.9509L46.4267 22.6176C46.4662 22.4096 46.4643 22.196 46.4213 21.9888C46.3782 21.7815 46.2947 21.5848 46.1756 21.4099C46.0565 21.2349 45.9042 21.0851 45.7272 20.9691C45.5502 20.853 45.3521 20.7729 45.1442 20.7334C44.9362 20.6939 44.7226 20.6957 44.5154 20.7388C44.3081 20.7819 44.1114 20.8653 43.9365 20.9844C43.5831 21.2249 43.3398 21.596 43.26 22.0159L42.8325 24.3117C40.182 22.0147 36.7924 20.7499 33.285 20.7492C29.4691 20.7155 25.7956 22.1969 23.0706 24.8684C20.3456 27.5399 18.7918 31.1834 18.75 34.9992C18.7918 38.8151 20.3456 42.4585 23.0706 45.1301C25.7956 47.8016 29.4691 49.283 33.285 49.2492C36.3775 49.2968 39.4035 48.3501 41.9175 46.5487C44.4316 44.7472 46.3008 42.1862 47.25 39.2426C47.3101 39.0399 47.3289 38.8272 47.3054 38.617C47.282 38.4069 47.2167 38.2036 47.1134 38.0192C47.0101 37.8347 46.8709 37.6728 46.704 37.543C46.5371 37.4132 46.3459 37.3181 46.1417 37.2634Z" fill="white"/>
</g>
<defs>
<linearGradient id="paint0_linear_432_46709" x1="70" y1="70" x2="5.00315" y2="60.4815" gradientUnits="userSpaceOnUse">
<stop stop-color="#39394F"/>
<stop offset="1" stop-color="#8585A2"/>
</linearGradient>
<clipPath id="clip0_432_46709">
<rect width="38" height="38" fill="white" transform="translate(14 16)"/>
</clipPath>
</defs>
</svg>
