<svg width="70" height="70" viewBox="0 0 70 70" fill="none" xmlns="http://www.w3.org/2000/svg">
<rect width="70" height="70" rx="35" fill="url(#paint0_linear_432_46672)"/>
<g clip-path="url(#clip0_432_46672)">
<path d="M35.0001 19.166C31.8686 19.166 28.8073 20.0946 26.2036 21.8344C23.5998 23.5742 21.5704 26.047 20.372 28.9402C19.1736 31.8334 18.8601 35.0169 19.471 38.0883C20.0819 41.1596 21.5899 43.9809 23.8042 46.1952C26.0186 48.4095 28.8398 49.9175 31.9112 50.5285C34.9825 51.1394 38.1661 50.8258 41.0592 49.6274C43.9524 48.4291 46.4252 46.3997 48.165 43.7959C49.9048 41.1921 50.8334 38.1309 50.8334 34.9993C50.8334 32.9201 50.4239 30.8612 49.6282 28.9402C48.8325 27.0192 47.6662 25.2738 46.1959 23.8035C44.7257 22.3332 42.9802 21.167 41.0592 20.3713C39.1383 19.5756 37.0794 19.166 35.0001 19.166ZM41.3334 39.3535C41.3334 39.8784 41.1249 40.3818 40.7537 40.753C40.3826 41.1242 39.8792 41.3327 39.3543 41.3327H30.6459C30.121 41.3327 29.6176 41.1242 29.2464 40.753C28.8753 40.3818 28.6668 39.8784 28.6668 39.3535V30.6452C28.6668 30.1203 28.8753 29.6169 29.2464 29.2457C29.6176 28.8745 30.121 28.666 30.6459 28.666H39.3543C39.8792 28.666 40.3826 28.8745 40.7537 29.2457C41.1249 29.6169 41.3334 30.1203 41.3334 30.6452V39.3535Z" fill="white"/>
<path d="M40.1334 28.666H29.8667C29.204 28.666 28.6667 29.2033 28.6667 29.866V40.1327C28.6667 40.7954 29.204 41.3327 29.8667 41.3327H40.1334C40.7962 41.3327 41.3334 40.7954 41.3334 40.1327V29.866C41.3334 29.2033 40.7962 28.666 40.1334 28.666Z" fill="#FF4B4B"/>
</g>
<defs>
<linearGradient id="paint0_linear_432_46672" x1="70" y1="70" x2="11.0949" y2="61.1493" gradientUnits="userSpaceOnUse">
<stop stop-color="#C30303"/>
<stop offset="1" stop-color="#FF5656"/>
</linearGradient>
<clipPath id="clip0_432_46672">
<rect width="38" height="38" fill="white" transform="translate(16 16)"/>
</clipPath>
</defs>
</svg>
